<?xml version="1.0" encoding="UTF-8" standalone="no"?>
<!-- Created with Inkscape (http://www.inkscape.org/) -->

<svg
   width="78.581505mm"
   height="70.379166mm"
   viewBox="0 0 78.581505 70.379166"
   version="1.1"
   id="svg1"
   inkscape:version="1.3 (0e150ed6c4, 2023-07-21)"
   sodipodi:docname="bruno-aun-logo.svg"
   xmlns:inkscape="http://www.inkscape.org/namespaces/inkscape"
   xmlns:sodipodi="http://sodipodi.sourceforge.net/DTD/sodipodi-0.dtd"
   xmlns="http://www.w3.org/2000/svg"
   xmlns:svg="http://www.w3.org/2000/svg">
  <sodipodi:namedview
     id="namedview1"
     pagecolor="#ffffff"
     bordercolor="#000000"
     borderopacity="0.25"
     inkscape:showpageshadow="2"
     inkscape:pageopacity="0.0"
     inkscape:pagecheckerboard="0"
     inkscape:deskcolor="#d1d1d1"
     inkscape:document-units="px"
     showborder="false"
     inkscape:zoom="2"
     inkscape:cx="371"
     inkscape:cy="420.25"
     inkscape:window-width="1286"
     inkscape:window-height="1301"
     inkscape:window-x="1916"
     inkscape:window-y="4"
     inkscape:window-maximized="0"
     inkscape:current-layer="layer1" />
  <defs
     id="defs1" />
  <g
     inkscape:label="Layer 1"
     inkscape:groupmode="layer"
     id="layer1"
     transform="translate(-63.631757,-69.333754)">
    <path
       d="m 127.22169,139.55376 -15.84037,-11.94553 h -3.17914 l 16.05122,12.10469 h 1.55546 a 16.404167,16.404167 0 0 0 1.41283,-0.15916 z"
       style="stroke-width:0.265"
       id="path63" />
    <path
       d="m 133.28334,137.86394 -13.59917,-10.25571 h -3.68867 l 14.85853,11.205 a 16.404167,16.404167 0 0 0 2.07222,-0.72502 16.404167,16.404167 0 0 0 0.35709,-0.22427 z"
       style="stroke-width:0.265"
       id="path60" />
    <path
       d="M 89.3408,81.43844 74.644023,70.354879 a 16.404167,16.404167 0 0 0 -1.724959,0.603581 16.404167,16.404167 0 0 0 -0.356568,0.224275 l 13.59917,10.255705 z"
       style="stroke-width:0.265"
       id="path53" />
    <path
       d="M 97.643653,81.43844 81.592436,69.333753 h -1.555977 a 16.404167,16.404167 0 0 0 -1.854668,0.208772 L 93.955506,81.43844 Z"
       style="stroke-width:0.265"
       id="path50" />
    <path
       d="M 86.206625,69.333753 102.25732,81.43844 h 28.84372 v 37.37085 L 96.177075,92.470842 81.548511,81.43844 70.045337,72.764034 a 16.404167,16.404167 0 0 0 -0.236678,0.148828 16.404167,16.404167 0 0 0 -2.597257,2.597258 16.404167,16.404167 0 0 0 -1.954403,3.110404 16.404167,16.404167 0 0 0 -1.213363,3.466972 16.404167,16.404167 0 0 0 -0.0088,0.07286 16.404167,16.404167 0 0 0 -0.403076,3.577559 v 53.975005 h 56.00745 L 103.58799,127.60823 H 74.744792 V 90.23687 l 49.553048,37.37136 h 5.2e-4 l 11.50162,8.67441 a 16.404167,16.404167 0 0 0 0.23668,-0.14883 16.404167,16.404167 0 0 0 2.59726,-2.59726 16.404167,16.404167 0 0 0 1.9544,-3.1104 16.404167,16.404167 0 0 0 1.21336,-3.46697 16.404167,16.404167 0 0 0 0.008,-0.0734 h 5.2e-4 a 16.404167,16.404167 0 0 0 0.40307,-3.57705 V 69.333753 Z"
       style="stroke-width:0.265"
       id="path46" />
    <text
       xml:space="preserve"
       style="font-style:normal;font-variant:normal;font-weight:normal;font-stretch:normal;font-size:19.1535px;font-family:'MS PGothic';-inkscape-font-specification:'MS PGothic, Normal';font-variant-ligatures:normal;font-variant-caps:normal;font-variant-numeric:normal;font-variant-east-asian:normal;fill:#000000;fill-opacity:1;stroke-width:0.359693;stroke-dasharray:none"
       x="110.18271"
       y="102.11431"
       id="text76"
       transform="scale(1.0264464,0.97423499)"><tspan
         sodipodi:role="line"
         id="tspan76"
         style="font-style:normal;font-variant:normal;font-weight:normal;font-stretch:normal;font-size:19.1535px;font-family:'MS PGothic';-inkscape-font-specification:'MS PGothic, Normal';font-variant-ligatures:normal;font-variant-caps:normal;font-variant-numeric:normal;font-variant-east-asian:normal;stroke-width:0.359694"
         x="110.18271"
         y="102.11431">B</tspan></text>
    <text
       xml:space="preserve"
       style="font-style:normal;font-variant:normal;font-weight:normal;font-stretch:normal;font-size:19.9582px;font-family:'MS PGothic';-inkscape-font-specification:'MS PGothic, Normal';font-variant-ligatures:normal;font-variant-caps:normal;font-variant-numeric:normal;font-variant-east-asian:normal;fill:#000000;fill-opacity:1;stroke-width:0.374805;stroke-dasharray:none"
       x="74.868256"
       y="129.75117"
       id="text77"
       transform="scale(1.0695706,0.93495464)"><tspan
         sodipodi:role="line"
         id="tspan77"
         style="font-style:normal;font-variant:normal;font-weight:normal;font-stretch:normal;font-size:19.9582px;font-family:'MS PGothic';-inkscape-font-specification:'MS PGothic, Normal';font-variant-ligatures:normal;font-variant-caps:normal;font-variant-numeric:normal;font-variant-east-asian:normal;stroke-width:0.374806"
         x="74.868256"
         y="129.75117">A</tspan></text>
  </g>
</svg>
